<svg width="40" height="40" viewBox="0 0 40 40" fill="none" xmlns="http://www.w3.org/2000/svg">
<g id="teenyicons:home-solid" clip-path="url(#clip0_467_242)">
<path id="Vector" d="M20.8667 0.320088C20.6252 0.113515 20.3178 0 20 0C19.6822 0 19.3748 0.113515 19.1333 0.320088L0 16.7201V36.0001C0 37.061 0.421427 38.0784 1.17157 38.8285C1.92172 39.5787 2.93913 40.0001 4 40.0001H14.6667C15.0203 40.0001 15.3594 39.8596 15.6095 39.6096C15.8595 39.3595 16 39.0204 16 38.6668V30.6668C16 29.6059 16.4214 28.5885 17.1716 27.8383C17.9217 27.0882 18.9391 26.6668 20 26.6668C21.0609 26.6668 22.0783 27.0882 22.8284 27.8383C23.5786 28.5885 24 29.6059 24 30.6668V38.6668C24 39.0204 24.1405 39.3595 24.3905 39.6096C24.6406 39.8596 24.9797 40.0001 25.3333 40.0001H36C37.0609 40.0001 38.0783 39.5787 38.8284 38.8285C39.5786 38.0784 40 37.061 40 36.0001V16.7201L20.8667 0.320088Z" fill="black"/>
</g>
<defs>
<clipPath id="clip0_467_242">
<rect width="40" height="40" fill="white"/>
</clipPath>
</defs>
</svg>
