<svg width="40" height="40" viewBox="0 0 40 40" fill="none" xmlns="http://www.w3.org/2000/svg">
<g id="teenyicons:home-outline" clip-path="url(#clip0_58_561)">
<path id="Vector" d="M20 1.33342L20.8667 0.320088C20.6252 0.113515 20.3178 0 20 0C19.6822 0 19.3748 0.113515 19.1333 0.320088L20 1.33342ZM1.33333 17.3334L0.466667 16.3201L0 16.7201V17.3334H1.33333ZM14.6667 38.6668V40.0001C15.0203 40.0001 15.3594 39.8596 15.6095 39.6096C15.8595 39.3595 16 39.0204 16 38.6668H14.6667ZM25.3333 38.6668H24C24 39.0204 24.1405 39.3595 24.3905 39.6096C24.6406 39.8596 24.9797 40.0001 25.3333 40.0001V38.6668ZM38.6667 17.3334H40V16.7201L39.5333 16.3201L38.6667 17.3334ZM4 40.0001H14.6667V37.3334H4V40.0001ZM39.5333 16.3201L20.8667 0.320088L19.1333 2.34675L37.8 18.3468L39.5333 16.3201ZM19.1333 0.320088L0.466667 16.3201L2.2 18.3468L20.8667 2.34675L19.1333 0.320088ZM16 38.6668V30.6668H13.3333V38.6668H16ZM24 30.6668V38.6668H26.6667V30.6668H24ZM25.3333 40.0001H36V37.3334H25.3333V40.0001ZM40 36.0001V17.3334H37.3333V36.0001H40ZM0 17.3334V36.0001H2.66667V17.3334H0ZM20 26.6668C21.0609 26.6668 22.0783 27.0882 22.8284 27.8383C23.5786 28.5885 24 29.6059 24 30.6668H26.6667C26.6667 28.8986 25.9643 27.203 24.714 25.9527C23.4638 24.7025 21.7681 24.0001 20 24.0001V26.6668ZM20 24.0001C18.2319 24.0001 16.5362 24.7025 15.286 25.9527C14.0357 27.203 13.3333 28.8986 13.3333 30.6668H16C16 29.6059 16.4214 28.5885 17.1716 27.8383C17.9217 27.0882 18.9391 26.6668 20 26.6668V24.0001ZM36 40.0001C37.0609 40.0001 38.0783 39.5787 38.8284 38.8285C39.5786 38.0784 40 37.061 40 36.0001H37.3333C37.3333 36.3537 37.1929 36.6928 36.9428 36.9429C36.6928 37.1929 36.3536 37.3334 36 37.3334V40.0001ZM4 37.3334C3.64638 37.3334 3.30724 37.1929 3.05719 36.9429C2.80714 36.6928 2.66667 36.3537 2.66667 36.0001H0C0 37.061 0.421427 38.0784 1.17157 38.8285C1.92172 39.5787 2.93913 40.0001 4 40.0001V37.3334Z" fill="black"/>
</g>
<defs>
<clipPath id="clip0_58_561">
<rect width="40" height="40" fill="white"/>
</clipPath>
</defs>
</svg>
