<svg width="40" height="40" viewBox="0 0 40 40" fill="none" xmlns="http://www.w3.org/2000/svg">
<g id="ph:scan-fill">
<path id="Vector" d="M35 6.25V12.5C35 12.8315 34.8683 13.1495 34.6339 13.3839C34.3995 13.6183 34.0815 13.75 33.75 13.75C33.4185 13.75 33.1005 13.6183 32.8661 13.3839C32.6317 13.1495 32.5 12.8315 32.5 12.5V7.5H27.5C27.1685 7.5 26.8505 7.3683 26.6161 7.13388C26.3817 6.89946 26.25 6.58152 26.25 6.25C26.25 5.91848 26.3817 5.60054 26.6161 5.36612C26.8505 5.1317 27.1685 5 27.5 5H33.75C34.0815 5 34.3995 5.1317 34.6339 5.36612C34.8683 5.60054 35 5.91848 35 6.25ZM12.5 32.5H7.5V27.5C7.5 27.1685 7.3683 26.8505 7.13388 26.6161C6.89946 26.3817 6.58152 26.25 6.25 26.25C5.91848 26.25 5.60054 26.3817 5.36612 26.6161C5.1317 26.8505 5 27.1685 5 27.5V33.75C5 34.0815 5.1317 34.3995 5.36612 34.6339C5.60054 34.8683 5.91848 35 6.25 35H12.5C12.8315 35 13.1495 34.8683 13.3839 34.6339C13.6183 34.3995 13.75 34.0815 13.75 33.75C13.75 33.4185 13.6183 33.1005 13.3839 32.8661C13.1495 32.6317 12.8315 32.5 12.5 32.5ZM33.75 26.25C33.4185 26.25 33.1005 26.3817 32.8661 26.6161C32.6317 26.8505 32.5 27.1685 32.5 27.5V32.5H27.5C27.1685 32.5 26.8505 32.6317 26.6161 32.8661C26.3817 33.1005 26.25 33.4185 26.25 33.75C26.25 34.0815 26.3817 34.3995 26.6161 34.6339C26.8505 34.8683 27.1685 35 27.5 35H33.75C34.0815 35 34.3995 34.8683 34.6339 34.6339C34.8683 34.3995 35 34.0815 35 33.75V27.5C35 27.1685 34.8683 26.8505 34.6339 26.6161C34.3995 26.3817 34.0815 26.25 33.75 26.25ZM6.25 13.75C6.58152 13.75 6.89946 13.6183 7.13388 13.3839C7.3683 13.1495 7.5 12.8315 7.5 12.5V7.5H12.5C12.8315 7.5 13.1495 7.3683 13.3839 7.13388C13.6183 6.89946 13.75 6.58152 13.75 6.25C13.75 5.91848 13.6183 5.60054 13.3839 5.36612C13.1495 5.1317 12.8315 5 12.5 5H6.25C5.91848 5 5.60054 5.1317 5.36612 5.36612C5.1317 5.60054 5 5.91848 5 6.25V12.5C5 12.8315 5.1317 13.1495 5.36612 13.3839C5.60054 13.6183 5.91848 13.75 6.25 13.75ZM28.75 26.25V13.75C28.75 13.087 28.4866 12.4511 28.0178 11.9822C27.5489 11.5134 26.913 11.25 26.25 11.25H13.75C13.087 11.25 12.4511 11.5134 11.9822 11.9822C11.5134 12.4511 11.25 13.087 11.25 13.75V26.25C11.25 26.913 11.5134 27.5489 11.9822 28.0178C12.4511 28.4866 13.087 28.75 13.75 28.75H26.25C26.913 28.75 27.5489 28.4866 28.0178 28.0178C28.4866 27.5489 28.75 26.913 28.75 26.25Z" fill="white"/>
</g>
</svg>
