<svg width="41" height="41" viewBox="0 0 41 41" fill="none" xmlns="http://www.w3.org/2000/svg">
<path d="M17.4278 5.43555C15.0005 5.43555 12.6277 6.15533 10.6094 7.50386C8.5912 8.8524 7.01818 10.7691 6.0893 13.0117C5.16041 15.2542 4.91737 17.7218 5.39091 20.1025C5.86445 22.4831 7.03331 24.6699 8.74967 26.3863C10.466 28.1026 12.6528 29.2715 15.0335 29.745C17.4141 30.2186 19.8818 29.9755 22.1243 29.0467C24.3668 28.1178 26.2836 26.5448 27.6321 24.5265C28.9806 22.5083 29.7004 20.1355 29.7004 17.7082C29.7002 14.4534 28.4071 11.3319 26.1056 9.03035C23.8041 6.72883 20.6826 5.43575 17.4278 5.43555Z" stroke="black" stroke-width="2.5" stroke-miterlimit="10"/>
<path d="M26.584 26.8644L35.1551 35.4355" stroke="black" stroke-width="2.5" stroke-miterlimit="10" stroke-linecap="round"/>
</svg>
