<svg width="20" height="21" viewBox="0 0 20 21" fill="none" xmlns="http://www.w3.org/2000/svg">
<g id="Search">
<path id="Search_2" d="M19.7555 19.3887L16.3182 16.028L16.2376 15.9055C16.0878 15.7563 15.883 15.6723 15.6692 15.6723C15.4554 15.6723 15.2505 15.7563 15.1007 15.9055C12.1795 18.5855 7.67815 18.7312 4.58201 16.2459C1.48586 13.7606 0.755668 9.41553 2.87568 6.09233C4.9957 2.76914 9.30807 1.49901 12.9528 3.1243C16.5976 4.74959 18.4438 8.76596 17.267 12.5098C17.1823 12.7802 17.2515 13.0743 17.4487 13.2813C17.6459 13.4883 17.9411 13.5767 18.223 13.5133C18.505 13.4498 18.7309 13.2441 18.8156 12.9736C20.2224 8.53081 18.0977 3.74972 13.8161 1.72322C9.53449 -0.303273 4.38084 1.03299 1.68905 4.86758C-1.00273 8.70218 -0.424821 13.8843 3.04893 17.0617C6.52268 20.239 11.8498 20.4581 15.5841 17.5771L18.6277 20.5527C18.942 20.8587 19.4502 20.8587 19.7645 20.5527C20.0785 20.2424 20.0785 19.7428 19.7645 19.4324L19.7555 19.3887Z" fill="#171716"/>
</g>
</svg>
