<svg width="34" height="34" viewBox="0 0 34 34" fill="none" xmlns="http://www.w3.org/2000/svg">
<path id="Vector" d="M32.871 30.0403L25.5203 22.6895C27.29 20.3335 28.2454 17.4658 28.2421 14.5192C28.2421 6.99264 22.1187 0.869202 14.5921 0.869202C7.06558 0.869202 0.942139 6.99264 0.942139 14.5192C0.942139 22.0458 7.06558 28.1692 14.5921 28.1692C17.5388 28.1724 20.4065 27.2171 22.7625 25.4473L30.1132 32.7981C30.4853 33.1307 30.9706 33.3083 31.4695 33.2943C31.9684 33.2804 32.4431 33.0759 32.796 32.723C33.1489 32.3701 33.3533 31.8955 33.3673 31.3966C33.3812 30.8977 33.2037 30.4124 32.871 30.0403ZM4.84214 14.5192C4.84214 12.5908 5.41397 10.7058 6.48531 9.10239C7.55665 7.49901 9.0794 6.24933 10.861 5.51138C12.6426 4.77342 14.603 4.58034 16.4943 4.95655C18.3856 5.33275 20.1229 6.26135 21.4864 7.62491C22.85 8.98847 23.7786 10.7258 24.1548 12.6171C24.531 14.5084 24.3379 16.4688 23.6 18.2504C22.862 20.0319 21.6123 21.5547 20.0089 22.626C18.4056 23.6974 16.5205 24.2692 14.5921 24.2692C12.0072 24.2661 9.52908 23.2379 7.70127 21.4101C5.87347 19.5823 4.84524 17.1041 4.84214 14.5192Z" fill="black"/>
</svg>
