<svg width="19" height="24" viewBox="0 0 19 24" fill="none" xmlns="http://www.w3.org/2000/svg">
<path id="Vector" d="M6.11742 0.5C4.78598 0.5 3.57792 0.638206 2.73999 0.84861C2.31845 0.953812 1.98945 1.08119 1.80438 1.19155C1.73755 1.23177 1.71699 1.2524 1.69643 1.27354C1.71699 1.29469 1.73755 1.31531 1.80438 1.35554C1.98945 1.4659 2.31845 1.59327 2.73999 1.69848C3.57792 1.90888 4.78598 2.04709 6.11742 2.04709C7.44886 2.04709 8.65693 1.90888 9.49486 1.69848C9.9164 1.59327 10.2454 1.4659 10.4305 1.35554C10.4973 1.31531 10.5179 1.29469 10.5384 1.27354C10.5179 1.2524 10.4973 1.23177 10.4305 1.19155C10.2454 1.08119 9.9164 0.953812 9.49486 0.84861C8.65693 0.638206 7.44886 0.5 6.11742 0.5ZM1.64502 2.31164V4.37803C1.97917 4.54821 2.41613 4.71839 2.73999 4.8009C3.57792 5.01233 4.78598 5.15157 6.11742 5.15157C7.44886 5.15157 8.65693 5.01233 9.49486 4.8009C10.1117 4.65135 10.1837 4.63587 10.5898 4.37803V2.31164C10.3379 2.42303 10.0501 2.51637 9.72105 2.59888C8.77002 2.83661 7.51055 2.97534 6.11742 2.97534C4.7243 2.97534 3.46483 2.83661 2.5138 2.59888C2.18479 2.51637 1.89692 2.42303 1.64502 2.31164ZM2.08712 5.58475C1.66044 5.73431 1.23891 6.00247 0.894481 6.34798C0.348539 6.88946 0 7.61659 0 8.287V11.5874C0 11.8453 0.113095 12.067 0.404058 12.3197C0.693994 12.5673 1.1618 12.8096 1.73755 13.0056C2.89935 13.3924 4.50839 13.5987 6.11742 13.5987C7.72132 13.5987 9.3355 13.3924 10.4973 13.0056C11.0731 12.8096 11.5409 12.5673 11.8287 12.3197C12.1218 12.067 12.2348 11.8453 12.2348 11.5874V8.287C12.2348 7.61659 11.8853 6.88946 11.3404 6.34798C10.9959 6.00247 10.5795 5.73431 10.1477 5.58475C10.0141 5.62601 9.87013 5.66726 9.72105 5.70336C8.77002 5.94058 7.51055 6.07982 6.11742 6.07982C4.7243 6.07982 3.46483 5.94058 2.5138 5.70336C2.36472 5.66726 2.22078 5.62601 2.08712 5.58475ZM0 13.1809V16.5381C0 16.796 0.113095 17.0177 0.404058 17.2704C0.693994 17.5179 1.1618 17.7603 1.73755 17.9563C2.89935 18.3431 4.50839 18.5493 6.11742 18.5493C7.72132 18.5493 9.3355 18.3431 10.4973 17.9563C11.0731 17.7603 11.5409 17.5179 11.8287 17.2704C12.1218 17.0177 12.2348 16.796 12.2348 16.5381V13.1809C11.8339 13.4697 11.3455 13.6966 10.7852 13.8823C9.47944 14.3206 7.79843 14.5269 6.11742 14.5269C4.43128 14.5269 2.75541 14.3206 1.44968 13.8823C0.88934 13.6966 0.398404 13.4697 0 13.1809ZM0 18.1316V21.4888C0 21.7466 0.113095 21.9684 0.404058 22.2211C0.693994 22.4686 1.1618 22.711 1.73755 22.907C2.89935 23.2937 4.50839 23.5 6.11742 23.5C7.01705 23.5 7.92695 23.433 8.74946 23.3092C8.58496 23.0771 8.48214 22.8141 8.48214 22.515C8.48214 21.9065 8.90882 21.4269 9.44345 21.1278C9.76731 20.9422 10.1529 20.8132 10.5744 20.7359C10.6875 20.2769 11.0576 19.9108 11.4946 19.6632C11.7156 19.5395 11.9675 19.4363 12.2348 19.359V18.1316C11.8339 18.4204 11.3455 18.6473 10.7852 18.833C9.47944 19.2713 7.79843 19.4776 6.11742 19.4776C4.43128 19.4776 2.75541 19.2713 1.44968 18.833C0.88934 18.6473 0.398404 18.4204 0 18.1316ZM13.4635 20.1274C12.8517 20.1274 12.3017 20.2717 11.947 20.4729C11.8287 20.5399 11.7413 20.607 11.6694 20.6688C12.3171 20.7049 12.9134 20.8648 13.3812 21.1278C13.6999 21.3083 13.9827 21.5507 14.1523 21.8446C14.3065 21.4578 14.6356 21.1433 15.0262 20.9267C15.1291 20.87 15.237 20.8184 15.3501 20.7668C15.273 20.674 15.1548 20.5709 14.98 20.4729C14.6253 20.2717 14.0752 20.1274 13.4635 20.1274ZM16.9951 21.3908C16.3834 21.3908 15.8333 21.5352 15.4786 21.7363C15.1188 21.9374 14.9903 22.154 14.9903 22.3139C14.9903 22.4738 15.1188 22.6904 15.4786 22.8915C15.8333 23.0926 16.3834 23.237 16.9951 23.237C17.6069 23.237 18.1569 23.0926 18.5116 22.8915C18.8715 22.6904 19 22.4738 19 22.3139C19 22.154 18.8715 21.9374 18.5116 21.7363C18.1569 21.5352 17.6069 21.3908 16.9951 21.3908ZM11.4123 21.5919C10.8006 21.5919 10.2505 21.7363 9.89583 21.9374C9.53598 22.1386 9.40747 22.3552 9.40747 22.515C9.40747 22.6749 9.53598 22.8915 9.89583 23.0926C10.2505 23.2937 10.8006 23.4381 11.4123 23.4381C12.0241 23.4381 12.5741 23.2937 12.9288 23.0926C13.2887 22.8915 13.4172 22.6749 13.4172 22.515C13.4172 22.3552 13.2887 22.1386 12.9288 21.9374C12.5741 21.7363 12.0241 21.5919 11.4123 21.5919Z" fill="black"/>
</svg>
